# xmcd
#
# Track frame offsets:
#	150
#	24684
#	47959
#	69186
#	91231
#	109853
#	128803
#	161531
#	179126
#	199181
#	216747
#	231346
#	254176
#
# Disc length: 3694 seconds
#
# Revision: 0
# Processed by: cddbd v1.5.2PL0 Copyright (c) Steve Scherf et al.
# Submitted via: EasyCDDAExtractor 16.0.9.1
#
DISCID=cb0e6c0d
DTITLE=Various Artist - Top Hits 049: Tình Đầu Tình Cuối
DYEAR=2011
DGENRE=Blues
TTITLE0=Ngọc Hạ - Trăng Mờ Bên Suối
TTITLE1=Trần Thái Hòa - Mười Năm Yêu Em
TTITLE2=Khánh Ly and Nguyễn Ngọc Ngạn - Về Đây Nghe Em
TTITLE3=Khang Việt - Lần Đầu Cũng Là Lần Cuối
TTITLE4=Hương Giang - Đừng Bỏ Em Một Mình
TTITLE5=Ngọc Anh - Nếu Một Mai Em Qua Đời
TTITLE6=Khánh Hà and Elvis Phương - Liên Khúc Nhạc Pháp
TTITLE7=Nguyễn Hưng - Thuở Ban Đầu
TTITLE8=Trần Quang Lộc - Cho Tôi Lại Từ Đầu
TTITLE9=Don Hồ - Giấc Mơ Tuổi 20
TTITLE10=Ngọc Liên - Về Lại Phố Xưa
TTITLE11=Ý Lan - Như Chưa Bắt Đầu
TTITLE12=Various Artist - Tình Đầu Tình Cuối
EXTD=
EXTT0=
EXTT1=
EXTT2=
EXTT3=
EXTT4=
EXTT5=
EXTT6=
EXTT7=
EXTT8=
EXTT9=
EXTT10=
EXTT11=
EXTT12=
PLAYORDER=
